<?xml version="1.0" encoding="UTF-8"?>
<svg xmlns="http://www.w3.org/2000/svg" xmlns:xlink="http://www.w3.org/1999/xlink" width="2000" height="2000" viewBox="0 0 2000 2000">
<defs>
<clipPath id="clip-0">
<path clip-rule="nonzero" d="M 803 1030 L 982 1030 L 982 1332 L 803 1332 Z M 803 1030 "/>
</clipPath>
<clipPath id="clip-1">
<path clip-rule="nonzero" d="M 914.925781 1112.671875 C 939.410156 1086.328125 964.316406 1059.539062 981.28125 1030.269531 C 961.644531 1055.941406 933.148438 1077 905.1875 1097.648438 C 870.734375 1123.109375 835.105469 1149.429688 816.992188 1183.480469 C 801.886719 1211.871094 798.921875 1244.761719 808.648438 1276.089844 C 814.964844 1296.441406 826.214844 1315.179688 841.929688 1331.808594 C 825.714844 1299.230469 822.65625 1262.679688 833.363281 1228.488281 C 846.628906 1186.128906 881.347656 1148.78125 914.925781 1112.671875 Z M 914.925781 1112.671875 "/>
</clipPath>
<clipPath id="clip-2">
<path clip-rule="nonzero" d="M 914.925781 1112.671875 C 939.410156 1086.328125 964.316406 1059.539062 981.28125 1030.269531 C 961.644531 1055.941406 933.148438 1077 905.1875 1097.648438 C 870.734375 1123.109375 835.105469 1149.429688 816.992188 1183.480469 C 801.886719 1211.871094 798.921875 1244.761719 808.648438 1276.089844 C 814.964844 1296.441406 826.214844 1315.179688 841.929688 1331.808594 C 825.714844 1299.230469 822.65625 1262.679688 833.363281 1228.488281 C 846.628906 1186.128906 881.347656 1148.78125 914.925781 1112.671875 "/>
</clipPath>
<linearGradient id="linear-pattern-0" gradientUnits="userSpaceOnUse" x1="0.355212" y1="0" x2="0.505247" y2="0" gradientTransform="matrix(1205.76, 2015.6, -2015.6, 1205.76, 385.59, 305.35)">
<stop offset="0" stop-color="rgb(72.987366%, 72.496033%, 72.618103%)" stop-opacity="1"/>
<stop offset="0.03125" stop-color="rgb(72.866821%, 72.372437%, 72.494507%)" stop-opacity="1"/>
<stop offset="0.0625" stop-color="rgb(72.624207%, 72.125244%, 72.24884%)" stop-opacity="1"/>
<stop offset="0.09375" stop-color="rgb(72.380066%, 71.878052%, 72.003174%)" stop-opacity="1"/>
<stop offset="0.125" stop-color="rgb(72.138977%, 71.632385%, 71.759033%)" stop-opacity="1"/>
<stop offset="0.15625" stop-color="rgb(71.894836%, 71.383667%, 71.510315%)" stop-opacity="1"/>
<stop offset="0.1875" stop-color="rgb(71.652222%, 71.136475%, 71.264648%)" stop-opacity="1"/>
<stop offset="0.21875" stop-color="rgb(71.411133%, 70.890808%, 71.020508%)" stop-opacity="1"/>
<stop offset="0.25" stop-color="rgb(71.168518%, 70.643616%, 70.773315%)" stop-opacity="1"/>
<stop offset="0.28125" stop-color="rgb(70.924377%, 70.394897%, 70.526123%)" stop-opacity="1"/>
<stop offset="0.3125" stop-color="rgb(70.683289%, 70.150757%, 70.281982%)" stop-opacity="1"/>
<stop offset="0.34375" stop-color="rgb(70.440674%, 69.902039%, 70.036316%)" stop-opacity="1"/>
<stop offset="0.375" stop-color="rgb(70.196533%, 69.654846%, 69.789124%)" stop-opacity="1"/>
<stop offset="0.40625" stop-color="rgb(69.953918%, 69.407654%, 69.543457%)" stop-opacity="1"/>
<stop offset="0.4375" stop-color="rgb(69.711304%, 69.160461%, 69.297791%)" stop-opacity="1"/>
<stop offset="0.46875" stop-color="rgb(69.468689%, 68.913269%, 69.050598%)" stop-opacity="1"/>
<stop offset="0.5" stop-color="rgb(69.226074%, 68.666077%, 68.804932%)" stop-opacity="1"/>
<stop offset="0.53125" stop-color="rgb(68.983459%, 68.418884%, 68.559265%)" stop-opacity="1"/>
<stop offset="0.5625" stop-color="rgb(68.742371%, 68.173218%, 68.313599%)" stop-opacity="1"/>
<stop offset="0.59375" stop-color="rgb(68.49823%, 67.9245%, 68.067932%)" stop-opacity="1"/>
<stop offset="0.625" stop-color="rgb(68.254089%, 67.677307%, 67.82074%)" stop-opacity="1"/>
<stop offset="0.65625" stop-color="rgb(68.014526%, 67.431641%, 67.576599%)" stop-opacity="1"/>
<stop offset="0.6875" stop-color="rgb(67.770386%, 67.184448%, 67.329407%)" stop-opacity="1"/>
<stop offset="0.71875" stop-color="rgb(67.526245%, 66.93573%, 67.082214%)" stop-opacity="1"/>
<stop offset="0.75" stop-color="rgb(67.285156%, 66.690063%, 66.836548%)" stop-opacity="1"/>
<stop offset="0.78125" stop-color="rgb(67.042542%, 66.442871%, 66.592407%)" stop-opacity="1"/>
<stop offset="0.8125" stop-color="rgb(66.798401%, 66.194153%, 66.345215%)" stop-opacity="1"/>
<stop offset="0.84375" stop-color="rgb(66.557312%, 65.948486%, 66.099548%)" stop-opacity="1"/>
<stop offset="0.875" stop-color="rgb(66.314697%, 65.701294%, 65.853882%)" stop-opacity="1"/>
<stop offset="0.90625" stop-color="rgb(66.070557%, 65.454102%, 65.606689%)" stop-opacity="1"/>
<stop offset="0.9375" stop-color="rgb(65.829468%, 65.206909%, 65.361023%)" stop-opacity="1"/>
<stop offset="0.96875" stop-color="rgb(65.585327%, 64.958191%, 65.113831%)" stop-opacity="1"/>
<stop offset="1" stop-color="rgb(65.344238%, 64.71405%, 64.86969%)" stop-opacity="1"/>
</linearGradient>
<clipPath id="clip-3">
<path clip-rule="nonzero" d="M 408 426 L 1594 426 L 1594 1574 L 408 1574 Z M 408 426 "/>
</clipPath>
<clipPath id="clip-4">
<path clip-rule="nonzero" d="M 1242.570312 1357.96875 L 1223.761719 1338.191406 C 1245.75 1315.300781 1265.101562 1289.871094 1281.339844 1262.390625 C 1318.601562 1199.339844 1338.300781 1127.109375 1338.300781 1053.511719 C 1338.300781 951.859375 1300.898438 854.289062 1233.019531 778.75 C 1196.910156 738.558594 1153.710938 706.269531 1106.039062 683.210938 L 1176.96875 608.578125 C 1309.320312 692.371094 1397.179688 840.070312 1397.179688 1008.289062 C 1397.179688 1146.859375 1337.558594 1271.5 1242.570312 1357.96875 Z M 1000.78125 426.980469 C 673.648438 426.980469 408.460938 692.160156 408.460938 1019.289062 C 408.460938 1272.199219 566.96875 1488.078125 790.054688 1573.019531 C 782.285156 1565.820312 778.84375 1554.449219 782.667969 1543.621094 C 782.707031 1543.511719 782.746094 1543.398438 782.785156 1543.289062 L 810.554688 1466.429688 C 813.941406 1457.058594 819.824219 1450.148438 826.75 1446.910156 L 920.59375 1446.910156 L 830.324219 1430.871094 C 820.636719 1429.148438 813.148438 1421.058594 812.707031 1411.230469 C 812.691406 1410.878906 812.683594 1410.539062 812.683594 1410.191406 C 812.683594 1399.148438 820.585938 1389.960938 831.039062 1387.949219 C 831.023438 1387.808594 831.003906 1387.679688 830.988281 1387.539062 L 888.703125 1387.539062 C 786.546875 1334.359375 766.625 1241.238281 801.691406 1175.328125 C 848.199219 1087.910156 988.347656 1054.96875 989.269531 960.371094 C 967.820312 973.578125 941.765625 979.308594 916.773438 975.949219 C 887.503906 972.011719 858.378906 956.28125 840.988281 932.421875 C 805.757812 924.320312 776.726562 962.449219 746.539062 968.21875 C 723.144531 942.511719 680.96875 969.378906 674.613281 913.921875 C 687.902344 895.429688 652.082031 887.339844 672.015625 852.390625 C 742.0625 849.789062 831.464844 800.109375 846.574219 767.609375 C 893.957031 719.03125 1002.191406 720.941406 1002.191406 720.941406 L 971.039062 670.800781 C 1163.089844 692.609375 1312.300781 855.628906 1312.300781 1053.511719 C 1312.300781 1196.371094 1234.511719 1321.039062 1118.988281 1387.539062 L 1176.511719 1387.539062 C 1176.5 1387.710938 1176.488281 1387.871094 1176.480469 1388.039062 C 1186.710938 1390.230469 1194.378906 1399.308594 1194.378906 1410.191406 C 1194.378906 1422.699219 1184.238281 1432.839844 1171.730469 1432.839844 L 1171.320312 1432.839844 C 1170.128906 1432.839844 1169.171875 1433.808594 1169.171875 1435 L 1169.171875 1442.691406 C 1169.171875 1443.878906 1170.128906 1444.839844 1171.320312 1444.839844 C 1181.980469 1444.839844 1191.730469 1453.191406 1196.511719 1466.429688 L 1224.28125 1543.289062 C 1227.078125 1551.058594 1227.828125 1559.230469 1226.949219 1566.878906 C 1441.871094 1478.011719 1593.089844 1266.308594 1593.089844 1019.289062 C 1593.089844 692.160156 1327.898438 426.980469 1000.78125 426.980469 Z M 1000.78125 426.980469 "/>
</clipPath>
<clipPath id="clip-5">
<path clip-rule="nonzero" d="M 1242.570312 1357.96875 L 1223.761719 1338.191406 C 1245.75 1315.300781 1265.101562 1289.871094 1281.339844 1262.390625 C 1318.601562 1199.339844 1338.300781 1127.109375 1338.300781 1053.511719 C 1338.300781 951.859375 1300.898438 854.289062 1233.019531 778.75 C 1196.910156 738.558594 1153.710938 706.269531 1106.039062 683.210938 L 1176.96875 608.578125 C 1309.320312 692.371094 1397.179688 840.070312 1397.179688 1008.289062 C 1397.179688 1146.859375 1337.558594 1271.5 1242.570312 1357.96875 Z M 1000.78125 426.980469 C 673.648438 426.980469 408.460938 692.160156 408.460938 1019.289062 C 408.460938 1272.199219 566.96875 1488.078125 790.054688 1573.019531 C 782.285156 1565.820312 778.84375 1554.449219 782.667969 1543.621094 C 782.707031 1543.511719 782.746094 1543.398438 782.785156 1543.289062 L 810.554688 1466.429688 C 813.941406 1457.058594 819.824219 1450.148438 826.75 1446.910156 L 920.59375 1446.910156 L 830.324219 1430.871094 C 820.636719 1429.148438 813.148438 1421.058594 812.707031 1411.230469 C 812.691406 1410.878906 812.683594 1410.539062 812.683594 1410.191406 C 812.683594 1399.148438 820.585938 1389.960938 831.039062 1387.949219 C 831.023438 1387.808594 831.003906 1387.679688 830.988281 1387.539062 L 888.703125 1387.539062 C 786.546875 1334.359375 766.625 1241.238281 801.691406 1175.328125 C 848.199219 1087.910156 988.347656 1054.96875 989.269531 960.371094 C 967.820312 973.578125 941.765625 979.308594 916.773438 975.949219 C 887.503906 972.011719 858.378906 956.28125 840.988281 932.421875 C 805.757812 924.320312 776.726562 962.449219 746.539062 968.21875 C 723.144531 942.511719 680.96875 969.378906 674.613281 913.921875 C 687.902344 895.429688 652.082031 887.339844 672.015625 852.390625 C 742.0625 849.789062 831.464844 800.109375 846.574219 767.609375 C 893.957031 719.03125 1002.191406 720.941406 1002.191406 720.941406 L 971.039062 670.800781 C 1163.089844 692.609375 1312.300781 855.628906 1312.300781 1053.511719 C 1312.300781 1196.371094 1234.511719 1321.039062 1118.988281 1387.539062 L 1176.511719 1387.539062 C 1176.5 1387.710938 1176.488281 1387.871094 1176.480469 1388.039062 C 1186.710938 1390.230469 1194.378906 1399.308594 1194.378906 1410.191406 C 1194.378906 1422.699219 1184.238281 1432.839844 1171.730469 1432.839844 L 1171.320312 1432.839844 C 1170.128906 1432.839844 1169.171875 1433.808594 1169.171875 1435 L 1169.171875 1442.691406 C 1169.171875 1443.878906 1170.128906 1444.839844 1171.320312 1444.839844 C 1181.980469 1444.839844 1191.730469 1453.191406 1196.511719 1466.429688 L 1224.28125 1543.289062 C 1227.078125 1551.058594 1227.828125 1559.230469 1226.949219 1566.878906 C 1441.871094 1478.011719 1593.089844 1266.308594 1593.089844 1019.289062 C 1593.089844 692.160156 1327.898438 426.980469 1000.78125 426.980469 "/>
</clipPath>
<linearGradient id="linear-pattern-1" gradientUnits="userSpaceOnUse" x1="0.0494408" y1="0" x2="0.727105" y2="0" gradientTransform="matrix(1205.76, 2015.6, -2015.6, 1205.76, 524.115, 222.48)">
<stop offset="0" stop-color="rgb(88.815308%, 88.612366%, 88.66272%)" stop-opacity="1"/>
<stop offset="0.0078125" stop-color="rgb(88.676453%, 88.470459%, 88.522339%)" stop-opacity="1"/>
<stop offset="0.015625" stop-color="rgb(88.404846%, 88.194275%, 88.246155%)" stop-opacity="1"/>
<stop offset="0.0234375" stop-color="rgb(88.130188%, 87.915039%, 87.968445%)" stop-opacity="1"/>
<stop offset="0.03125" stop-color="rgb(87.85553%, 87.634277%, 87.689209%)" stop-opacity="1"/>
<stop offset="0.0390625" stop-color="rgb(87.583923%, 87.356567%, 87.413025%)" stop-opacity="1"/>
<stop offset="0.046875" stop-color="rgb(87.306213%, 87.075806%, 87.133789%)" stop-opacity="1"/>
<stop offset="0.0546875" stop-color="rgb(87.034607%, 86.798096%, 86.857605%)" stop-opacity="1"/>
<stop offset="0.0625" stop-color="rgb(86.759949%, 86.51886%, 86.579895%)" stop-opacity="1"/>
<stop offset="0.0703125" stop-color="rgb(86.485291%, 86.239624%, 86.300659%)" stop-opacity="1"/>
<stop offset="0.078125" stop-color="rgb(86.212158%, 85.961914%, 86.024475%)" stop-opacity="1"/>
<stop offset="0.0859375" stop-color="rgb(85.9375%, 85.681152%, 85.745239%)" stop-opacity="1"/>
<stop offset="0.09375" stop-color="rgb(85.664368%, 85.403442%, 85.467529%)" stop-opacity="1"/>
<stop offset="0.101563" stop-color="rgb(85.388184%, 85.122681%, 85.188293%)" stop-opacity="1"/>
<stop offset="0.109375" stop-color="rgb(85.115051%, 84.843445%, 84.912109%)" stop-opacity="1"/>
<stop offset="0.117187" stop-color="rgb(84.841919%, 84.567261%, 84.635925%)" stop-opacity="1"/>
<stop offset="0.125" stop-color="rgb(84.567261%, 84.286499%, 84.356689%)" stop-opacity="1"/>
<stop offset="0.132812" stop-color="rgb(84.294128%, 84.007263%, 84.078979%)" stop-opacity="1"/>
<stop offset="0.140625" stop-color="rgb(84.017944%, 83.728027%, 83.799744%)" stop-opacity="1"/>
<stop offset="0.148438" stop-color="rgb(83.744812%, 83.448792%, 83.522034%)" stop-opacity="1"/>
<stop offset="0.15625" stop-color="rgb(83.47168%, 83.171082%, 83.24585%)" stop-opacity="1"/>
<stop offset="0.164062" stop-color="rgb(83.197021%, 82.891846%, 82.966614%)" stop-opacity="1"/>
<stop offset="0.171875" stop-color="rgb(82.923889%, 82.614136%, 82.69043%)" stop-opacity="1"/>
<stop offset="0.179688" stop-color="rgb(82.647705%, 82.331848%, 82.411194%)" stop-opacity="1"/>
<stop offset="0.1875" stop-color="rgb(82.374573%, 82.054138%, 82.133484%)" stop-opacity="1"/>
<stop offset="0.195312" stop-color="rgb(82.10144%, 81.776428%, 81.8573%)" stop-opacity="1"/>
<stop offset="0.203125" stop-color="rgb(81.826782%, 81.495667%, 81.578064%)" stop-opacity="1"/>
<stop offset="0.210937" stop-color="rgb(81.55365%, 81.217957%, 81.30188%)" stop-opacity="1"/>
<stop offset="0.21875" stop-color="rgb(81.278992%, 80.938721%, 81.022644%)" stop-opacity="1"/>
<stop offset="0.226562" stop-color="rgb(81.004333%, 80.657959%, 80.743408%)" stop-opacity="1"/>
<stop offset="0.234375" stop-color="rgb(80.731201%, 80.380249%, 80.467224%)" stop-opacity="1"/>
<stop offset="0.242188" stop-color="rgb(80.456543%, 80.101013%, 80.189514%)" stop-opacity="1"/>
<stop offset="0.25" stop-color="rgb(80.183411%, 79.823303%, 79.91333%)" stop-opacity="1"/>
<stop offset="0.257812" stop-color="rgb(79.908752%, 79.542542%, 79.634094%)" stop-opacity="1"/>
<stop offset="0.265625" stop-color="rgb(79.634094%, 79.263306%, 79.354858%)" stop-opacity="1"/>
<stop offset="0.273437" stop-color="rgb(79.360962%, 78.985596%, 79.078674%)" stop-opacity="1"/>
<stop offset="0.28125" stop-color="rgb(79.086304%, 78.704834%, 78.799438%)" stop-opacity="1"/>
<stop offset="0.289062" stop-color="rgb(78.813171%, 78.42865%, 78.523254%)" stop-opacity="1"/>
<stop offset="0.296875" stop-color="rgb(78.538513%, 78.147888%, 78.245544%)" stop-opacity="1"/>
<stop offset="0.304688" stop-color="rgb(78.263855%, 77.868652%, 77.967834%)" stop-opacity="1"/>
<stop offset="0.3125" stop-color="rgb(77.990723%, 77.590942%, 77.690125%)" stop-opacity="1"/>
<stop offset="0.320312" stop-color="rgb(77.716064%, 77.310181%, 77.410889%)" stop-opacity="1"/>
<stop offset="0.328125" stop-color="rgb(77.442932%, 77.032471%, 77.134705%)" stop-opacity="1"/>
<stop offset="0.335937" stop-color="rgb(77.168274%, 76.753235%, 76.855469%)" stop-opacity="1"/>
<stop offset="0.34375" stop-color="rgb(76.895142%, 76.475525%, 76.579285%)" stop-opacity="1"/>
<stop offset="0.351562" stop-color="rgb(76.618958%, 76.193237%, 76.300049%)" stop-opacity="1"/>
<stop offset="0.359375" stop-color="rgb(76.345825%, 75.915527%, 76.022339%)" stop-opacity="1"/>
<stop offset="0.367187" stop-color="rgb(76.072693%, 75.637817%, 75.746155%)" stop-opacity="1"/>
<stop offset="0.375" stop-color="rgb(75.798035%, 75.357056%, 75.466919%)" stop-opacity="1"/>
<stop offset="0.382812" stop-color="rgb(75.524902%, 75.079346%, 75.190735%)" stop-opacity="1"/>
<stop offset="0.390625" stop-color="rgb(75.250244%, 74.80011%, 74.911499%)" stop-opacity="1"/>
<stop offset="0.398437" stop-color="rgb(74.975586%, 74.519348%, 74.632263%)" stop-opacity="1"/>
<stop offset="0.40625" stop-color="rgb(74.702454%, 74.241638%, 74.356079%)" stop-opacity="1"/>
<stop offset="0.414062" stop-color="rgb(74.427795%, 73.962402%, 74.076843%)" stop-opacity="1"/>
<stop offset="0.421875" stop-color="rgb(74.154663%, 73.684692%, 73.800659%)" stop-opacity="1"/>
<stop offset="0.429688" stop-color="rgb(73.880005%, 73.403931%, 73.522949%)" stop-opacity="1"/>
<stop offset="0.4375" stop-color="rgb(73.605347%, 73.124695%, 73.243713%)" stop-opacity="1"/>
<stop offset="0.445312" stop-color="rgb(73.332214%, 72.846985%, 72.967529%)" stop-opacity="1"/>
<stop offset="0.453125" stop-color="rgb(73.057556%, 72.566223%, 72.688293%)" stop-opacity="1"/>
<stop offset="0.460937" stop-color="rgb(72.784424%, 72.288513%, 72.412109%)" stop-opacity="1"/>
<stop offset="0.46875" stop-color="rgb(72.509766%, 72.009277%, 72.132874%)" stop-opacity="1"/>
<stop offset="0.476562" stop-color="rgb(72.235107%, 71.730042%, 71.855164%)" stop-opacity="1"/>
<stop offset="0.484375" stop-color="rgb(71.961975%, 71.450806%, 71.578979%)" stop-opacity="1"/>
<stop offset="0.492187" stop-color="rgb(71.687317%, 71.17157%, 71.299744%)" stop-opacity="1"/>
<stop offset="0.5" stop-color="rgb(71.414185%, 70.89386%, 71.02356%)" stop-opacity="1"/>
<stop offset="0.507812" stop-color="rgb(71.141052%, 70.614624%, 70.74585%)" stop-opacity="1"/>
<stop offset="0.515625" stop-color="rgb(70.864868%, 70.335388%, 70.466614%)" stop-opacity="1"/>
<stop offset="0.523438" stop-color="rgb(70.591736%, 70.056152%, 70.188904%)" stop-opacity="1"/>
<stop offset="0.53125" stop-color="rgb(70.315552%, 69.775391%, 69.909668%)" stop-opacity="1"/>
<stop offset="0.539062" stop-color="rgb(70.043945%, 69.499207%, 69.633484%)" stop-opacity="1"/>
<stop offset="0.546875" stop-color="rgb(69.769287%, 69.219971%, 69.355774%)" stop-opacity="1"/>
<stop offset="0.554688" stop-color="rgb(69.494629%, 68.939209%, 69.078064%)" stop-opacity="1"/>
<stop offset="0.5625" stop-color="rgb(69.223022%, 68.663025%, 68.80188%)" stop-opacity="1"/>
<stop offset="0.570312" stop-color="rgb(68.945312%, 68.380737%, 68.521118%)" stop-opacity="1"/>
<stop offset="0.578125" stop-color="rgb(68.673706%, 68.103027%, 68.244934%)" stop-opacity="1"/>
<stop offset="0.585937" stop-color="rgb(68.399048%, 67.825317%, 67.967224%)" stop-opacity="1"/>
<stop offset="0.59375" stop-color="rgb(68.12439%, 67.544556%, 67.687988%)" stop-opacity="1"/>
<stop offset="0.601562" stop-color="rgb(67.852783%, 67.266846%, 67.411804%)" stop-opacity="1"/>
<stop offset="0.609375" stop-color="rgb(67.575073%, 66.986084%, 67.132568%)" stop-opacity="1"/>
<stop offset="0.617187" stop-color="rgb(67.303467%, 66.708374%, 66.856384%)" stop-opacity="1"/>
<stop offset="0.625" stop-color="rgb(67.028809%, 66.429138%, 66.578674%)" stop-opacity="1"/>
<stop offset="0.632812" stop-color="rgb(66.75415%, 66.149902%, 66.299438%)" stop-opacity="1"/>
<stop offset="0.640625" stop-color="rgb(66.481018%, 65.872192%, 66.023254%)" stop-opacity="1"/>
<stop offset="0.648438" stop-color="rgb(66.20636%, 65.591431%, 65.744019%)" stop-opacity="1"/>
<stop offset="0.65625" stop-color="rgb(65.933228%, 65.312195%, 65.466309%)" stop-opacity="1"/>
<stop offset="0.664062" stop-color="rgb(65.658569%, 65.034485%, 65.188599%)" stop-opacity="1"/>
<stop offset="0.671875" stop-color="rgb(65.383911%, 64.753723%, 64.910889%)" stop-opacity="1"/>
<stop offset="0.679687" stop-color="rgb(65.110779%, 64.476013%, 64.634705%)" stop-opacity="1"/>
<stop offset="0.6875" stop-color="rgb(64.836121%, 64.196777%, 64.355469%)" stop-opacity="1"/>
<stop offset="0.695312" stop-color="rgb(64.562988%, 63.917542%, 64.077759%)" stop-opacity="1"/>
<stop offset="0.703125" stop-color="rgb(64.28833%, 63.638306%, 63.800049%)" stop-opacity="1"/>
<stop offset="0.710937" stop-color="rgb(64.013672%, 63.35907%, 63.520813%)" stop-opacity="1"/>
<stop offset="0.71875" stop-color="rgb(63.74054%, 63.08136%, 63.244629%)" stop-opacity="1"/>
<stop offset="0.726562" stop-color="rgb(63.465881%, 62.800598%, 62.966919%)" stop-opacity="1"/>
<stop offset="0.734375" stop-color="rgb(63.192749%, 62.522888%, 62.689209%)" stop-opacity="1"/>
<stop offset="0.742188" stop-color="rgb(62.916565%, 62.242126%, 62.409973%)" stop-opacity="1"/>
<stop offset="0.75" stop-color="rgb(62.643433%, 61.962891%, 62.132263%)" stop-opacity="1"/>
<stop offset="0.757812" stop-color="rgb(62.3703%, 61.685181%, 61.856079%)" stop-opacity="1"/>
<stop offset="0.765625" stop-color="rgb(62.095642%, 61.405945%, 61.576843%)" stop-opacity="1"/>
<stop offset="0.773438" stop-color="rgb(61.82251%, 61.128235%, 61.300659%)" stop-opacity="1"/>
<stop offset="0.78125" stop-color="rgb(61.547852%, 60.847473%, 61.021423%)" stop-opacity="1"/>
<stop offset="0.789062" stop-color="rgb(61.274719%, 60.569763%, 60.743713%)" stop-opacity="1"/>
<stop offset="0.796875" stop-color="rgb(61.000061%, 60.290527%, 60.467529%)" stop-opacity="1"/>
<stop offset="0.804688" stop-color="rgb(60.725403%, 60.009766%, 60.188293%)" stop-opacity="1"/>
<stop offset="0.8125" stop-color="rgb(60.452271%, 59.733582%, 59.912109%)" stop-opacity="1"/>
<stop offset="0.820313" stop-color="rgb(60.177612%, 59.45282%, 59.632874%)" stop-opacity="1"/>
<stop offset="0.828125" stop-color="rgb(59.90448%, 59.173584%, 59.355164%)" stop-opacity="1"/>
<stop offset="0.835938" stop-color="rgb(59.629822%, 58.895874%, 59.077454%)" stop-opacity="1"/>
<stop offset="0.84375" stop-color="rgb(59.355164%, 58.615112%, 58.798218%)" stop-opacity="1"/>
<stop offset="0.851563" stop-color="rgb(59.082031%, 58.337402%, 58.522034%)" stop-opacity="1"/>
<stop offset="0.859375" stop-color="rgb(58.807373%, 58.058167%, 58.244324%)" stop-opacity="1"/>
<stop offset="0.867188" stop-color="rgb(58.534241%, 57.780457%, 57.96814%)" stop-opacity="1"/>
<stop offset="0.875" stop-color="rgb(58.259583%, 57.499695%, 57.688904%)" stop-opacity="1"/>
<stop offset="0.882812" stop-color="rgb(57.984924%, 57.220459%, 57.409668%)" stop-opacity="1"/>
<stop offset="0.890625" stop-color="rgb(57.711792%, 56.942749%, 57.133484%)" stop-opacity="1"/>
<stop offset="0.898437" stop-color="rgb(57.437134%, 56.661987%, 56.854248%)" stop-opacity="1"/>
<stop offset="0.90625" stop-color="rgb(57.164001%, 56.384277%, 56.578064%)" stop-opacity="1"/>
<stop offset="0.914062" stop-color="rgb(56.889343%, 56.105042%, 56.298828%)" stop-opacity="1"/>
<stop offset="0.921875" stop-color="rgb(56.614685%, 55.82428%, 56.021118%)" stop-opacity="1"/>
<stop offset="0.929687" stop-color="rgb(56.341553%, 55.54657%, 55.744934%)" stop-opacity="1"/>
<stop offset="0.9375" stop-color="rgb(56.066895%, 55.267334%, 55.465698%)" stop-opacity="1"/>
<stop offset="0.945312" stop-color="rgb(55.793762%, 54.989624%, 55.189514%)" stop-opacity="1"/>
<stop offset="0.953125" stop-color="rgb(55.52063%, 54.710388%, 54.911804%)" stop-opacity="1"/>
<stop offset="0.960938" stop-color="rgb(55.244446%, 54.429626%, 54.631042%)" stop-opacity="1"/>
<stop offset="0.96875" stop-color="rgb(54.971313%, 54.151917%, 54.354858%)" stop-opacity="1"/>
<stop offset="0.976562" stop-color="rgb(54.696655%, 53.871155%, 54.077148%)" stop-opacity="1"/>
<stop offset="0.984375" stop-color="rgb(54.423523%, 53.594971%, 53.800964%)" stop-opacity="1"/>
<stop offset="0.992188" stop-color="rgb(54.148865%, 53.314209%, 53.521729%)" stop-opacity="1"/>
<stop offset="1" stop-color="rgb(53.872681%, 53.033447%, 53.242493%)" stop-opacity="1"/>
</linearGradient>
<clipPath id="clip-6">
<path clip-rule="nonzero" d="M 751 740 L 962 740 L 962 853 L 751 853 Z M 751 740 "/>
</clipPath>
<clipPath id="clip-7">
<path clip-rule="nonzero" d="M 787.761719 836.660156 C 775.886719 842.710938 763.707031 848.03125 751.535156 852.550781 C 790.628906 849.589844 835.265625 828.28125 861.21875 802.988281 C 874.007812 790.53125 870.46875 786.648438 884.066406 775.070312 C 905.324219 756.980469 933.269531 747.519531 961.117188 740.808594 C 953.9375 741.679688 946.179688 742.839844 938.140625 744.398438 C 903.414062 751.101562 876.734375 762.691406 860.75 777.960938 C 846.101562 804.789062 805.160156 827.789062 787.761719 836.660156 Z M 787.761719 836.660156 "/>
</clipPath>
<clipPath id="clip-8">
<path clip-rule="nonzero" d="M 787.761719 836.660156 C 775.886719 842.710938 763.707031 848.03125 751.535156 852.550781 C 790.628906 849.589844 835.265625 828.28125 861.21875 802.988281 C 874.007812 790.53125 870.46875 786.648438 884.066406 775.070312 C 905.324219 756.980469 933.269531 747.519531 961.117188 740.808594 C 953.9375 741.679688 946.179688 742.839844 938.140625 744.398438 C 903.414062 751.101562 876.734375 762.691406 860.75 777.960938 C 846.101562 804.789062 805.160156 827.789062 787.761719 836.660156 "/>
</clipPath>
<linearGradient id="linear-pattern-2" gradientUnits="userSpaceOnUse" x1="0.23909" y1="0" x2="0.325726" y2="0" gradientTransform="matrix(1205.76, 2015.6, -2015.6, 1205.76, 515.807, 227.46)">
<stop offset="0" stop-color="rgb(78.997803%, 78.616333%, 78.710938%)" stop-opacity="1"/>
<stop offset="0.0625" stop-color="rgb(78.858948%, 78.474426%, 78.570557%)" stop-opacity="1"/>
<stop offset="0.125" stop-color="rgb(78.578186%, 78.187561%, 78.285217%)" stop-opacity="1"/>
<stop offset="0.1875" stop-color="rgb(78.297424%, 77.902222%, 77.999878%)" stop-opacity="1"/>
<stop offset="0.25" stop-color="rgb(78.018188%, 77.618408%, 77.71759%)" stop-opacity="1"/>
<stop offset="0.3125" stop-color="rgb(77.737427%, 77.331543%, 77.432251%)" stop-opacity="1"/>
<stop offset="0.375" stop-color="rgb(77.458191%, 77.047729%, 77.149963%)" stop-opacity="1"/>
<stop offset="0.4375" stop-color="rgb(77.175903%, 76.760864%, 76.863098%)" stop-opacity="1"/>
<stop offset="0.5" stop-color="rgb(76.898193%, 76.477051%, 76.582336%)" stop-opacity="1"/>
<stop offset="0.5625" stop-color="rgb(76.615906%, 76.190186%, 76.296997%)" stop-opacity="1"/>
<stop offset="0.625" stop-color="rgb(76.33667%, 75.904846%, 76.011658%)" stop-opacity="1"/>
<stop offset="0.6875" stop-color="rgb(76.057434%, 75.621033%, 75.72937%)" stop-opacity="1"/>
<stop offset="0.75" stop-color="rgb(75.775146%, 75.334167%, 75.444031%)" stop-opacity="1"/>
<stop offset="0.8125" stop-color="rgb(75.495911%, 75.050354%, 75.161743%)" stop-opacity="1"/>
<stop offset="0.875" stop-color="rgb(75.215149%, 74.763489%, 74.874878%)" stop-opacity="1"/>
<stop offset="0.9375" stop-color="rgb(74.934387%, 74.478149%, 74.591064%)" stop-opacity="1"/>
<stop offset="1" stop-color="rgb(74.655151%, 74.194336%, 74.308777%)" stop-opacity="1"/>
</linearGradient>
</defs>
<rect x="-200" y="-200" width="2400" height="2400" fill="rgb(13.729858%, 12.159729%, 12.548828%)" fill-opacity="1"/>
<g clip-path="url(#clip-0)">
<g clip-path="url(#clip-1)">
<g clip-path="url(#clip-2)">
<path fill-rule="nonzero" fill="url(#linear-pattern-0)" d="M 933.222656 949.929688 L 666.078125 1109.738281 L 846.984375 1412.148438 L 1114.125 1252.339844 Z M 933.222656 949.929688 "/>
</g>
</g>
</g>
<g clip-path="url(#clip-3)">
<g clip-path="url(#clip-4)">
<g clip-path="url(#clip-5)">
<path fill-rule="nonzero" fill="url(#linear-pattern-1)" d="M 1280.886719 -94.914062 L -96.433594 729.015625 L 720.667969 2094.914062 L 2097.984375 1270.984375 Z M 1280.886719 -94.914062 "/>
</g>
</g>
</g>
<g clip-path="url(#clip-6)">
<g clip-path="url(#clip-7)">
<g clip-path="url(#clip-8)">
<path fill-rule="nonzero" fill="url(#linear-pattern-2)" d="M 905.882812 648.476562 L 702.308594 770.257812 L 806.769531 944.882812 L 1010.34375 823.101562 Z M 905.882812 648.476562 "/>
</g>
</g>
</g>
</svg>
